<svg width="16" height="16" viewBox="0 0 16 16" fill="none" xmlns="http://www.w3.org/2000/svg">
<path d="M8.01123 10.2687C9.31886 10.2687 10.3789 9.24153 10.3789 7.9744C10.3789 6.70727 9.31886 5.68005 8.01123 5.68005C6.7036 5.68005 5.64355 6.70727 5.64355 7.9744C5.64355 9.24153 6.7036 10.2687 8.01123 10.2687Z" fill="#8391B2"/>
<path d="M11.6761 8.1025C11.6761 10.0636 10.0354 11.6531 8.01142 11.6531C5.98748 11.6531 4.34672 10.0636 4.34672 8.1025C4.34672 7.75108 4.39976 7.4116 4.49796 7.09094H3.41504V12.0713C3.41504 12.3293 3.62586 12.5399 3.88366 12.5399H12.0938C12.3518 12.5399 12.5628 12.3293 12.5628 12.0713V7.09094H11.5249C11.6229 7.4116 11.6761 7.75108 11.6761 8.1025Z" fill="#8391B2"/>
<path d="M10.6937 5.74691H12.0262C12.3182 5.74691 12.5569 5.50826 12.5569 5.21625V3.94574C12.5569 3.65357 12.3182 3.41492 12.0262 3.41492H10.6937C10.4015 3.41492 10.1628 3.65357 10.1628 3.94574V5.21625C10.1627 5.50809 10.4015 5.74691 10.6937 5.74691Z" fill="#8391B2"/>
<path d="M8 0C3.58171 0 0 3.58171 0 8C0 12.4183 3.58171 16 8 16C12.4183 16 16 12.4183 16 8C16 3.58171 12.4183 0 8 0ZM12.3818 13.8952H3.61837C2.78572 13.8952 2.10496 13.2789 2.10496 12.3821V3.61821C2.10496 2.72106 2.78572 2.10496 3.61837 2.10496H12.3818C13.2143 2.10496 13.8952 2.72106 13.8952 3.61821V12.3821C13.8952 13.2789 13.2141 13.8952 12.3818 13.8952Z" fill="#8391B2"/>
</svg>
